<?xml version="1.0" encoding="utf-8"?>
<!-- Generator: Adobe Illustrator 25.0.0, SVG Export Plug-In . SVG Version: 6.00 Build 0)  -->
<svg version="1.1"
	 id="svg5031" xmlns:cc="http://creativecommons.org/ns#" xmlns:dc="http://purl.org/dc/elements/1.1/" xmlns:inkscape="http://www.inkscape.org/namespaces/inkscape" xmlns:rdf="http://www.w3.org/1999/02/22-rdf-syntax-ns#" xmlns:sodipodi="http://sodipodi.sourceforge.net/DTD/sodipodi-0.dtd" xmlns:svg="http://www.w3.org/2000/svg"
	 xmlns="http://www.w3.org/2000/svg" xmlns:xlink="http://www.w3.org/1999/xlink" x="0px" y="0px" viewBox="0 0 595.28 841.89"
	 style="enable-background:new 0 0 595.28 841.89;" xml:space="preserve">
<style type="text/css">
	.st0{fill:#CCCCCC;}
	.st1{fill:none;stroke:#333333;stroke-width:2.1399;}
	.st2{stroke:#FFFFFF;stroke-width:3.102;stroke-linejoin:round;}
	.st3{fill:#1A1A1A;stroke:#808080;stroke-width:1.2528;stroke-linejoin:round;}
	.st4{fill:#FFFFFF;stroke:#FFFFFF;stroke-width:1.0505;stroke-linejoin:round;}
	.st5{fill:none;stroke:#333333;stroke-width:1.6891;stroke-linejoin:round;}
</style>
<sodipodi:namedview  bordercolor="#666666" borderopacity="1.0" id="base" inkscape:current-layer="layer1" inkscape:cx="-46.428571" inkscape:cy="520" inkscape:document-units="px" inkscape:pageopacity="0.0" inkscape:pageshadow="2" inkscape:window-height="657" inkscape:window-maximized="1" inkscape:window-width="1280" inkscape:window-x="-8" inkscape:window-y="-8" inkscape:zoom="0.35" pagecolor="#ffffff" showgrid="false">
	</sodipodi:namedview>
<g id="layer1" inkscape:groupmode="layer" inkscape:label="Layer 1">
	<g id="g4424" transform="matrix(2.8649696,0,0,2.816018,-1189.2019,-241.89206)">
		<path id="path3401-0" inkscape:connector-curvature="0" class="st0" d="M575.69,213.8v27.65c0,4.49-1.64,6.74-4.92,6.74
			c-1.37,0-2.54-0.46-3.52-1.39c-0.98-0.95-1.47-2.08-1.47-3.38c0-1.35,0.47-2.5,1.4-3.45c0.96-0.97,2.09-1.46,3.41-1.46
			c1.05,0,2.09,0.41,3.14,1.22v-13.94c-1.52-0.14-2.66-0.2-3.41-0.2c-4.73,0-8.83,1.74-12.29,5.21c-1.31,1.32-2.37,2.72-3.18,4.23
			c-0.54-1.34-1.24-2.52-2.11-3.55c-2.94-3.5-6.84-5.25-11.71-5.25c-4.26,0-7.85,1.51-10.79,4.54c-1.36,1.39-2.4,2.95-3.13,4.64
			c-0.83-1.78-1.97-3.41-3.47-4.88c-3.35-3.34-7.49-5.01-12.43-5.01c-5.05,0-9.32,1.7-12.8,5.11c-0.85,0.84-1.6,1.72-2.24,2.66
			v-18.8h-12.77v7.39c-1.65-4.92-6.44-7.39-14.39-7.39h-16.93v46.2h13.86v-33.81h2.56c2.3,0,3.45,0.8,3.45,2.4
			c0,1.74-1.27,2.61-3.82,2.61v12.32h2.66c2.32,0,3.48,0.74,3.48,2.23c0,0.88-0.28,1.5-0.85,1.86c-0.57,0.34-1.55,0.51-2.94,0.51
			h-2.36v11.88h2.63c2.78,0,4.98-0.24,6.62-0.71c1.64-0.47,3.18-1.31,4.61-2.5c0.53-0.45,0.99-0.94,1.42-1.44v4.66h12.77v-7.65
			c0.63,0.91,1.37,1.78,2.2,2.6c3.44,3.36,7.68,5.04,12.73,5.04c4.14,0,7.91-1.32,11.3-3.96l-7.27-8.66
			c-1.18,1.26-2.41,1.9-3.69,1.9c-1.57,0-2.85-0.68-3.82-2.03c-0.96-1.35-1.43-3.13-1.43-5.31c0-2.1,0.5-3.81,1.5-5.14
			c1-1.35,2.3-2.03,3.89-2.03c2.39,0,3.81,1.25,4.27,3.76h-6.49c-0.41,1.08-0.61,2.19-0.61,3.32c0,0.81,0.15,1.7,0.44,2.67h16.63
			v15.5h12.77v-19.05c0-1.94,0.8-2.91,2.39-2.91c1.62,0,2.42,0.97,2.42,2.91v19.05h12.77v-7.23c0.56,0.75,1.18,1.47,1.88,2.16
			c3.48,3.38,7.76,5.08,12.84,5.08c2.55,0,5.03-0.55,7.44-1.66c2.44-1.11,4.44-2.59,6.01-4.47c2.73-3.25,4.1-7.46,4.1-12.62V213.8
			H575.69z M483.42,230.11v8.85c-1.16-1.25-2.66-2.27-4.49-3.06C481.14,234.25,482.63,232.31,483.42,230.11z"/>
		<path id="path3401" inkscape:connector-curvature="0" class="st1" d="M573.08,210.08v27.65c0,4.49-1.64,6.74-4.92,6.74
			c-1.37,0-2.54-0.46-3.52-1.39c-0.98-0.95-1.47-2.08-1.47-3.38c0-1.35,0.47-2.5,1.4-3.45c0.96-0.97,2.09-1.46,3.41-1.46
			c1.05,0,2.09,0.41,3.14,1.22v-13.94c-1.52-0.14-2.66-0.2-3.41-0.2c-4.73,0-8.83,1.74-12.29,5.21c-1.31,1.32-2.37,2.72-3.18,4.23
			c-0.54-1.34-1.24-2.52-2.11-3.55c-2.94-3.5-6.84-5.25-11.71-5.25c-4.26,0-7.85,1.51-10.79,4.54c-1.36,1.39-2.4,2.95-3.13,4.64
			c-0.83-1.78-1.97-3.41-3.47-4.88c-3.35-3.34-7.49-5.01-12.43-5.01c-5.05,0-9.32,1.7-12.8,5.11c-0.85,0.84-1.6,1.72-2.24,2.66
			v-18.8h-12.77v7.39c-1.65-4.92-6.44-7.39-14.39-7.39h-16.93v46.2h13.86v-33.81h2.56c2.3,0,3.45,0.8,3.45,2.4
			c0,1.74-1.27,2.61-3.82,2.61v12.32h2.66c2.32,0,3.48,0.74,3.48,2.23c0,0.88-0.28,1.5-0.85,1.86c-0.57,0.34-1.55,0.51-2.94,0.51
			h-2.36v11.88h2.63c2.78,0,4.98-0.24,6.62-0.71c1.64-0.47,3.18-1.31,4.61-2.5c0.53-0.45,0.99-0.94,1.42-1.44v4.66h12.77v-7.65
			c0.63,0.91,1.37,1.78,2.2,2.6c3.44,3.36,7.68,5.04,12.73,5.04c4.14,0,7.91-1.32,11.3-3.96l-7.27-8.66
			c-1.18,1.26-2.41,1.9-3.69,1.9c-1.57,0-2.85-0.68-3.82-2.03c-0.96-1.35-1.43-3.13-1.43-5.31c0-2.1,0.5-3.81,1.5-5.14
			c1-1.35,2.3-2.03,3.89-2.03c2.39,0,3.81,1.25,4.27,3.76h-6.49c-0.41,1.08-0.61,2.19-0.61,3.32c0,0.81,0.15,1.7,0.44,2.67h16.63
			v15.5H536V237.9c0-1.94,0.8-2.91,2.39-2.91c1.62,0,2.42,0.97,2.42,2.91v19.05h12.77v-7.23c0.56,0.75,1.18,1.47,1.88,2.16
			c3.48,3.38,7.76,5.08,12.84,5.08c2.55,0,5.03-0.55,7.44-1.66c2.44-1.11,4.44-2.59,6.01-4.47c2.73-3.25,4.1-7.46,4.1-12.62v-28.13
			L573.08,210.08z M480.81,226.39v8.85c-1.16-1.25-2.66-2.27-4.49-3.06C478.53,230.53,480.02,228.59,480.81,226.39z"/>
		<g id="g7795-0-4" transform="translate(-13.316224,-1086.281)">
			<ellipse id="path7123-0-8-0-5" class="st2" cx="582.76" cy="1326.01" rx="11.85" ry="10.66"/>
			<ellipse id="path7125-6-7-2-5" class="st3" cx="582.76" cy="1326.01" rx="3.41" ry="3.04"/>
			<ellipse id="path7133-0-1-0-8" class="st4" cx="589.36" cy="1321.87" rx="1.33" ry="1.2"/>
			<ellipse id="path7125-2-4-1-6-5" class="st5" cx="582.76" cy="1326.01" rx="4.71" ry="4.01"/>
		</g>
	</g>
</g>
</svg>
