<?xml version="1.0" encoding="utf-8"?>
<!-- Generator: Adobe Illustrator 25.0.0, SVG Export Plug-In . SVG Version: 6.00 Build 0)  -->
<svg version="1.1" id="Layer_1" xmlns="http://www.w3.org/2000/svg" xmlns:xlink="http://www.w3.org/1999/xlink" x="0px" y="0px"
	 viewBox="0 0 612 792" style="enable-background:new 0 0 612 792;" xml:space="preserve">
<style type="text/css">
	.st0{fill:#FBD94C;}
	.st1{fill:#EC3B44;}
	.st2{font-family:'ArialRoundedMTBold';}
	.st3{font-size:36.488px;}
</style>
<g>
	<g>
		<path class="st0" d="M381.87,468.28c0-12.38-0.08-24.76,0.04-37.14c0.04-4.35,0.3-8.74,1.17-13.03
			c1.6-7.91,5.19-14.74,11.17-20.28c3.08-2.85,2.97-2.85,0.13-5.88c-3.92-4.17-7.33-8.78-9.4-14.1c-1.76-4.52-2.49-9.38-2.76-14.27
			c-0.78-14.14-0.07-28.3-0.44-42.44c-0.35-13.45-0.13-26.9-0.4-40.35c-0.08-4.06-0.06-8.25-2-12.08c-1.34-2.65-3.39-4.44-6.22-5.19
			c-5.01-1.33-10.11-1.61-15.25-0.96c-2.03,0.25-3.12-0.67-3.13-2.75c-0.01-7.49,0.04-14.98-0.03-22.48
			c-0.02-1.72,0.61-2.17,2.22-2.15c6.16,0.07,12.32,0.18,18.47-0.01c4.1-0.13,7.85,0.55,11.63,2.24
			c6.99,3.12,12.67,7.67,16.63,14.17c3.24,5.32,5.19,11.19,6.41,17.32c1.43,7.18,1.88,14.42,1.88,21.71c0,20.57,0,41.14,0,61.71
			c0,5.2,0.27,10.37,1.48,15.45c1.46,6.09,5.47,9.8,11.21,11.8c1.73,0.6,3.57,0.88,5.23,1.71c1.41,0.7,2.1,1.74,1.67,3.4
			c-0.19,0.72-0.17,1.51-0.17,2.27c-0.01,6.16-0.01,12.32-0.01,18.48c0,0.51-0.02,1.02,0.03,1.52c0.33,3.28-0.47,4.46-3.49,5.8
			c-2.24,1-4.7,1.33-6.83,2.74c-5.03,3.33-7.32,8.2-8.35,13.85c-0.71,3.87-0.79,7.79-0.79,11.73c0.03,22.22,0.05,44.44-0.02,66.67
			c-0.03,8.4-1.14,16.69-4.27,24.54c-2.64,6.61-6.42,12.56-12.32,16.77c-4.06,2.89-8.54,4.91-13.44,6.31
			c-7.9,2.27-15.87,1.11-23.81,1.38c-2.23,0.07-3.33-1.29-3.34-3.53c-0.01-7.81-0.01-15.62,0-23.43c0-2.29,1.11-3.11,3.89-2.72
			c4.65,0.66,9.21,0.15,13.75-0.83c4.56-0.98,7.03-3.98,7.94-8.41c1.05-5.1,1.5-10.26,1.5-15.46c0-11.36,0-22.73,0-34.09
			C381.86,468.28,381.87,468.28,381.87,468.28z"/>
		<path class="st0" d="M200.47,473.93c0-14.4,0.08-26.21-0.04-38.02c-0.04-4.04-0.33-8.11-1.28-12.05
			c-1.53-6.35-5.48-10.57-11.72-12.57c-1.44-0.46-2.95-0.74-4.38-1.23c-2.26-0.76-3.02-2.2-2.57-4.55c0.13-0.68,0.19-1.38,0.19-2.07
			c0.01-5.84,0.01-11.68,0.01-17.52c0-0.32-0.01-0.63,0-0.95c0.01-1.22-0.92-2.47,0.03-3.66c1.3-1.64,3.04-2.75,5.01-3.24
			c6.38-1.58,10.29-5.58,12.61-11.66c1.62-4.26,2.07-8.63,2.09-13.02c0.12-24.51-0.08-49.02,0.18-73.52
			c0.1-9.29,2.02-18.37,6.55-26.64c4.26-7.78,10.7-13.02,18.92-16.48c3.01-1.27,5.84-1.48,8.88-1.49c6.67-0.02,13.33-0.01,20-0.01
			c2.6,0,2.97,0.23,2.72,2.79c-0.58,6.08-0.11,12.17-0.31,18.25c-0.05,1.47,0.27,2.9,0.33,4.35c0.09,2.4-1.07,3.46-3.39,3.13
			c-4.7-0.68-9.41-0.46-13.97,0.6c-4.66,1.08-7.43,3.86-8.48,9.16c-1.12,5.68-1.13,11.44-1.23,17.21
			c-0.36,19.16-0.16,38.33-0.44,57.49c-0.1,6.91,0.24,13.85-0.36,20.72c-0.41,4.67-1.77,9.29-3.86,13.6
			c-2.24,4.62-5.32,8.58-9.19,11.97c-1.32,1.16-1.13,2.11,0.11,3.34c4.09,4.02,7.46,8.56,9.84,13.81c2.61,5.76,3.4,11.88,3.59,18.1
			c0.79,26.46,0.16,52.93,0.4,79.39c0.03,3.61,0.38,7.21,1.23,10.72c1.28,5.3,4.46,7.5,10.51,8.23c4.14,0.5,8.31,0.75,12.5,0.15
			c1.66-0.24,2.98,1.35,2.72,3.34c-0.55,4.24-0.22,8.49-0.26,12.73c-0.03,3.1-0.19,6.2,0.25,9.3c0.34,2.4-0.56,3.22-3,3.21
			c-3.43-0.01-6.86-0.03-10.28-0.03c-8.37,0-16.34-1.69-23.7-5.77c-6-3.32-10.37-8.25-13.44-14.33c-4.06-8.04-5.73-16.69-6.34-25.58
			C199.96,497.87,200.77,484.6,200.47,473.93z"/>
	</g>
	<path class="st0" d="M286.11,338.6c-0.23-0.44-0.37-0.87,0.14-1.22C286.74,337.85,286.77,338.27,286.11,338.6z"/>
	<path class="st0" d="M294.94,299.76c0.04,0.25-0.08,0.38-0.3,0.44C294.43,299.83,294.5,299.67,294.94,299.76z"/>
	<path class="st1" d="M290.69,304.03c-0.18,0.45-0.36,0.9-0.54,1.35c-0.48,0.33-0.77,0.74-0.5,1.35c-0.11,0.99-0.21,1.97-0.32,2.96
		c-0.74,1.97-1.6,3.91-1.33,6.1c-0.05,0.51-0.1,1.02-0.15,1.52c-0.51,0.35-0.37,0.78-0.14,1.22c-0.08,0.49-0.16,0.97-0.23,1.46
		c-0.45,2.38-1.45,4.7-0.96,7.21c0.02,1.38,0.32,2.77-0.14,4.13c-0.61,1.14-1.32,2.37-0.31,3.55c0.8,0.93,2.06,0.79,2.96,0.24
		c1.66-1,3.31-0.94,5.06-0.52c0.38,0.21,0.75,0.42,1.13,0.62c4.49,4.4,5.94,9.77,5.42,15.94c-0.19,2.3-1.2,4.16-2,6.16
		c-0.16,0.21-0.31,0.41-0.47,0.62c-0.48,0.39-1.13,0.69-1.42,1.19c-1.76,3.05-5.12,3.76-7.92,4.75c-4.05,1.42-8.47,1.06-12.62-0.32
		c-2.78-0.92-5.17-2.55-7.07-4.83c-0.17-0.2-0.34-0.41-0.5-0.61c-4.12-7.29-3.05-14.36,0.88-21.32c0.1-0.12,0.21-0.23,0.31-0.34
		c3.01-3.01,4.17-3.22,8.07-1.46c2.26,1.02,3.4,0.31,3.45-2.17c0.04-2.09-0.25-4.26,0.2-6.26c1.09-4.93,1.05-10,2.33-14.95
		c1.08-4.2,1.98-8.48,3.27-12.61c1.95-6.27,4.36-12.38,8.25-17.77c0.29-0.37,0.57-0.74,0.86-1.11c0.22-0.06,0.34-0.19,0.3-0.44
		c3.07-3.49,4.61-8.02,7.72-11.48c0.51-0.57,1-1.15,1.49-1.73c1.07-1.28,2.05-1.22,3.76-0.73c2.68,0.76,3.43,3.24,5.36,4.57
		c0.75,0.52,0.48,1.38,0.07,2.08c-1.47,2.51-2.88,5.06-4.7,7.32c-1.42,1.76-1.71,3.6-1.47,5.84c0.4,3.75,1.27,7.4,2.39,10.93
		c1.64,5.17,3.52,10.3,5.95,15.18c3.07,6.16,6.37,12.2,9.98,18.07c0.23,0.37,0.38,0.8,0.55,1.21c1.2,2.93,2.99,3.49,5.57,1.73
		c2.44-1.66,6.44-1.15,8.75,1.17c5.18,5.22,7.64,11.38,5.54,18.64c-0.95,3.28-3.26,5.94-6.05,8.06c-3.16,2.4-6.84,3.47-10.66,4.12
		c-2.3,0.4-4.51-0.45-6.69-0.96c-4.61-1.08-7.65-4.16-9.81-8.26c-0.51-0.97-0.91-1.95-1.09-3.01c-0.6-3.4-0.61-6.86-0.14-10.23
		c0.6-4.32,3.57-6.59,8.08-6.81c0.91-0.05,2.14,0.32,2.52-0.8c0.37-1.07-0.3-2.14-1.04-2.91c-2.37-2.44-3.73-5.48-5.42-8.37
		c-3.29-5.64-5.73-11.66-8.34-17.59c-1.03-2.34-1.81-4.93-2.63-7.41c-1.27-3.82-1.57-7.78-2.67-11.59c-0.37-1.26,0.19-2.37,0.2-3.56
		c0-0.79,0.31-1.77-0.77-2.1c-1-0.3-1.9-0.03-2.48,0.9c-2.25,3.65-4.31,7.39-5.88,11.41c-0.83,2.12-1.86,4.19-2.81,6.27
		c-0.58,1.28-0.25,2.65-0.88,3.84C290.58,303.53,290.52,303.73,290.69,304.03z"/>
	<text transform="matrix(0.9335 0 0 1 255.3983 406.3436)" class="st1 st2 st3">11411</text>
	<g>
		<path class="st1" d="M345.76,446.9H268.5c-3.44,0-6.22-2.79-6.22-6.22v-10.72c0-3.44,2.79-6.22,6.22-6.22h77.27
			c3.44,0,6.22,2.79,6.22,6.22v10.72C351.99,444.12,349.2,446.9,345.76,446.9z"/>
		<path class="st1" d="M274.75,507.66v-69.29c0-3.44,2.79-6.22,6.22-6.22h11.49c3.44,0,6.22,2.79,6.22,6.22v69.29
			c0,3.44-2.79,6.22-6.22,6.22h-11.49C277.53,513.88,274.75,511.1,274.75,507.66z"/>
		<path class="st1" d="M316.43,507.66v-69.29c0-3.44,2.79-6.22,6.22-6.22h11.49c3.44,0,6.22,2.79,6.22,6.22v69.29
			c0,3.44-2.79,6.22-6.22,6.22h-11.49C319.21,513.88,316.43,511.1,316.43,507.66z"/>
	</g>
</g>
</svg>
