<?xml version="1.0" encoding="utf-8"?>
<!-- Generator: Adobe Illustrator 25.0.0, SVG Export Plug-In . SVG Version: 6.00 Build 0)  -->
<svg version="1.1" id="Layer_1" xmlns="http://www.w3.org/2000/svg" xmlns:xlink="http://www.w3.org/1999/xlink" x="0px" y="0px"
	 viewBox="0 0 612 792" style="enable-background:new 0 0 612 792;" xml:space="preserve">
<style type="text/css">
	.st0{enable-background:new    ;}
	.st1{fill:#132249;}
	.st2{fill:#F26B6C;}
</style>
<g>
	<g class="st0">
		<path class="st1" d="M117.45,396.98h-12.46v-33.52c0-3.62,0.16-7.62,0.47-11.99h-0.31c-0.65,3.44-1.24,5.91-1.76,7.42
			l-13.12,38.09H79.95l-13.36-37.7c-0.37-1.02-0.95-3.62-1.76-7.81h-0.35c0.34,5.52,0.51,10.37,0.51,14.53v30.98H53.62v-56.02H72.1
			l11.45,33.2c0.91,2.66,1.58,5.33,1.99,8.01h0.23c0.7-3.1,1.45-5.79,2.23-8.09l11.45-33.12h18.01V396.98z"/>
		<path class="st1" d="M148.04,397.95c-6.67,0-11.91-1.87-15.72-5.61c-3.82-3.74-5.72-8.81-5.72-15.21c0-6.61,1.98-11.79,5.94-15.53
			c3.96-3.74,9.31-5.61,16.05-5.61c6.64,0,11.85,1.87,15.62,5.61c3.78,3.74,5.66,8.68,5.66,14.82c0,6.64-1.95,11.89-5.84,15.74
			C160.14,396.02,154.81,397.95,148.04,397.95z M148.35,365.45c-2.92,0-5.18,1-6.8,3.01c-1.62,2.01-2.42,4.84-2.42,8.52
			c0,7.68,3.1,11.52,9.3,11.52c5.91,0,8.87-3.95,8.87-11.84C157.3,369.19,154.31,365.45,148.35,365.45z"/>
		<path class="st1" d="M190.38,392.33h-0.16v4.65h-12.34v-59.22h12.34v25.23h0.16c3.05-4.66,7.38-6.99,13.01-6.99
			c5.16,0,9.13,1.77,11.91,5.31c2.79,3.54,4.18,8.39,4.18,14.53c0,6.67-1.63,12.02-4.88,16.05c-3.26,4.04-7.6,6.06-13.05,6.06
			C196.63,397.95,192.91,396.08,190.38,392.33z M190.03,375.45v4.1c0,2.58,0.74,4.71,2.23,6.41c1.48,1.69,3.38,2.54,5.7,2.54
			c2.81,0,4.99-1.09,6.54-3.26c1.55-2.17,2.32-5.25,2.32-9.24c0-3.31-0.71-5.89-2.13-7.75c-1.42-1.86-3.44-2.79-6.07-2.79
			c-2.47,0-4.53,0.92-6.15,2.77C190.84,370.07,190.03,372.48,190.03,375.45z"/>
		<path class="st1" d="M233.74,350.65c-2.08,0-3.79-0.62-5.12-1.86c-1.33-1.24-1.99-2.75-1.99-4.55c0-1.85,0.66-3.36,1.99-4.53
			s3.03-1.76,5.12-1.76c2.11,0,3.82,0.59,5.14,1.76c1.31,1.17,1.97,2.68,1.97,4.53c0,1.88-0.66,3.41-1.97,4.61
			C237.56,350.05,235.85,350.65,233.74,350.65z M239.84,396.98h-12.34v-40h12.34V396.98z"/>
		<path class="st1" d="M262.57,396.98h-12.34v-59.22h12.34V396.98z"/>
		<path class="st1" d="M308.9,380.49H282.8c0.42,5.81,4.08,8.71,10.98,8.71c4.4,0,8.27-1.04,11.6-3.12v8.91
			c-3.7,1.98-8.5,2.97-14.41,2.97c-6.46,0-11.47-1.79-15.04-5.37c-3.57-3.58-5.35-8.57-5.35-14.98c0-6.64,1.93-11.9,5.78-15.78
			c3.85-3.88,8.59-5.82,14.22-5.82c5.83,0,10.34,1.73,13.54,5.2c3.19,3.46,4.79,8.16,4.79,14.1V380.49z M297.45,372.91
			c0-5.73-2.32-8.59-6.95-8.59c-1.98,0-3.69,0.82-5.14,2.46s-2.32,3.69-2.64,6.13H297.45z"/>
	</g>
	<g transform="matrix(1, 0, 0, 1, 0, 0)">
		<g class="st0">
			<path class="st2" d="M379.67,396.98h-6.52V359.4c0-2.97,0.18-6.6,0.55-10.9h-0.16c-0.62,2.53-1.19,4.34-1.68,5.43l-19.14,43.05
				h-3.2l-19.1-42.73c-0.55-1.25-1.11-3.16-1.68-5.74h-0.16c0.21,2.24,0.31,5.9,0.31,10.98v37.5h-6.33v-56.02h8.67l17.19,39.06
				c1.33,3,2.19,5.23,2.58,6.72h0.23c1.12-3.07,2.02-5.36,2.7-6.88l17.54-38.91h8.2V396.98z"/>
			<path class="st2" d="M425.88,396.98h-6.41v-6.33h-0.16c-2.66,4.84-6.77,7.27-12.34,7.27c-9.53,0-14.3-5.68-14.3-17.03v-23.91
				h6.37v22.89c0,8.44,3.23,12.66,9.69,12.66c3.12,0,5.7-1.15,7.71-3.46c2.02-2.3,3.03-5.32,3.03-9.04v-23.05h6.41V396.98z"/>
			<path class="st2" d="M436.39,395.53v-6.88c3.49,2.58,7.33,3.87,11.52,3.87c5.62,0,8.44-1.88,8.44-5.62
				c0-1.07-0.24-1.97-0.72-2.71c-0.48-0.74-1.13-1.4-1.95-1.97c-0.82-0.57-1.78-1.09-2.89-1.54c-1.11-0.46-2.3-0.93-3.57-1.43
				c-1.77-0.7-3.33-1.41-4.67-2.13c-1.34-0.72-2.46-1.52-3.36-2.42s-1.58-1.92-2.03-3.07c-0.46-1.15-0.68-2.49-0.68-4.02
				c0-1.88,0.43-3.54,1.29-4.98s2-2.66,3.44-3.63c1.43-0.98,3.07-1.71,4.9-2.21c1.84-0.49,3.73-0.74,5.68-0.74
				c3.46,0,6.56,0.6,9.3,1.8v6.48c-2.94-1.93-6.33-2.89-10.16-2.89c-1.2,0-2.28,0.14-3.24,0.41c-0.96,0.27-1.79,0.66-2.48,1.15
				c-0.69,0.5-1.22,1.09-1.6,1.78c-0.38,0.69-0.57,1.45-0.57,2.29c0,1.04,0.19,1.91,0.57,2.62c0.38,0.7,0.93,1.33,1.66,1.88
				c0.73,0.55,1.61,1.04,2.66,1.48c1.04,0.44,2.23,0.92,3.55,1.45c1.77,0.68,3.36,1.37,4.77,2.09c1.41,0.72,2.6,1.52,3.59,2.42
				c0.99,0.9,1.75,1.93,2.29,3.11c0.53,1.17,0.8,2.57,0.8,4.18c0,1.98-0.44,3.7-1.31,5.16c-0.87,1.46-2.04,2.67-3.5,3.63
				c-1.46,0.96-3.14,1.68-5.04,2.15c-1.9,0.47-3.89,0.7-5.98,0.7C442.98,397.91,439.41,397.12,436.39,395.53z"/>
			<path class="st2" d="M500.02,395.14c-3.07,1.85-6.72,2.77-10.94,2.77c-5.7,0-10.31-1.86-13.81-5.57
				c-3.5-3.71-5.25-8.52-5.25-14.43c0-6.59,1.89-11.88,5.66-15.88c3.78-4,8.81-6,15.12-6c3.52,0,6.61,0.65,9.3,1.95v6.56
				c-2.97-2.08-6.15-3.12-9.53-3.12c-4.09,0-7.44,1.46-10.06,4.39s-3.93,6.78-3.93,11.54c0,4.69,1.23,8.39,3.69,11.09
				c2.46,2.71,5.76,4.06,9.9,4.06c3.49,0,6.77-1.16,9.84-3.48V395.14z"/>
			<path class="st2" d="M516.12,396.98h-6.41v-59.22h6.41V396.98z"/>
			<path class="st2" d="M561.23,378.58h-28.24c0.1,4.45,1.3,7.89,3.59,10.31c2.29,2.42,5.44,3.63,9.45,3.63
				c4.5,0,8.65-1.48,12.42-4.45v6.02c-3.52,2.55-8.16,3.83-13.95,3.83c-5.65,0-10.09-1.82-13.32-5.45
				c-3.23-3.63-4.84-8.74-4.84-15.33c0-6.22,1.76-11.29,5.29-15.21c3.53-3.92,7.91-5.88,13.14-5.88s9.28,1.69,12.15,5.08
				c2.86,3.39,4.3,8.09,4.3,14.1V378.58z M554.67,373.15c-0.03-3.7-0.92-6.58-2.68-8.63c-1.76-2.06-4.2-3.09-7.32-3.09
				c-3.02,0-5.59,1.08-7.7,3.24c-2.11,2.16-3.41,4.99-3.91,8.48H554.67z"/>
		</g>
	</g>
</g>
</svg>
